<svg id="Arrow-Thick-Right-1--Streamline-Streamline--3.0.svg" xmlns="http://www.w3.org/2000/svg" viewBox="0 0 16 16"
    height="12" width="12">
    <desc>Arrow Thick Right 1 Streamline Icon: https://streamlinehq.com</desc>
    <defs></defs>
    <title>arrow-thick-right-1</title>
    <path
        d="m8.693333333333332 0.9526666666666667 6.811999999999999 6.810666666666666a0.3333333333333333 0.3333333333333333 0 0 1 0 0.472L8.693333333333332 15.047333333333334a0.3333333333333333 0.3333333333333333 0 0 1 -0.47133333333333327 0l-1.837333333333333 -1.837333333333333a0.3333333333333333 0.3333333333333333 0 0 1 -0.009333333333333332 -0.46199999999999997L9.399999999999999 9.666666666666666h-8.666666666666666a0.3333333333333333 0.3333333333333333 0 0 1 -0.3333333333333333 -0.3333333333333333v-2.6666666666666665a0.3333333333333333 0.3333333333333333 0 0 1 0.3333333333333333 -0.3333333333333333h8.666666666666666L6.3773333333333335 3.252a0.3333333333333333 0.3333333333333333 0 0 1 0.008 -0.4666666666666666l1.8366666666666664 -1.8359999999999999a0.3333333333333333 0.3333333333333333 0 0 1 0.47133333333333327 0.003333333333333333Z"
        fill="none" stroke="#000000" stroke-linecap="round" stroke-linejoin="round" stroke-width="1"></path>
</svg>