<svg width="14" height="14" viewBox="0 0 14 14" fill="none" xmlns="http://www.w3.org/2000/svg">
<path fill-rule="evenodd" clip-rule="evenodd" d="M7.00004 0.583313C3.45621 0.583313 0.583374 3.45615 0.583374 6.99998C0.583374 10.5438 3.45621 13.4166 7.00004 13.4166C10.5439 13.4166 13.4167 10.5438 13.4167 6.99998C13.4167 3.45615 10.5439 0.583313 7.00004 0.583313ZM9.16252 4.8375C9.39033 5.06531 9.39033 5.43465 9.16252 5.66246L7.825 6.99998L9.16252 8.3375C9.39033 8.56531 9.39033 8.93465 9.16252 9.16246C8.93471 9.39026 8.56537 9.39026 8.33756 9.16246L7.00004 7.82494L5.66252 9.16246C5.43471 9.39026 5.06537 9.39026 4.83756 9.16246C4.60976 8.93465 4.60976 8.56531 4.83756 8.3375L6.17508 6.99998L4.83756 5.66246C4.60976 5.43465 4.60976 5.06531 4.83756 4.8375C5.06537 4.60969 5.43471 4.60969 5.66252 4.8375L7.00004 6.17502L8.33756 4.8375C8.56537 4.60969 8.93471 4.60969 9.16252 4.8375Z" fill="#604BC5"/>
</svg>
