<svg width="18" height="18" viewBox="0 0 18 18" fill="none" xmlns="http://www.w3.org/2000/svg">
<g opacity="0.74">
<path d="M6 2.25C6 1.83579 6.33579 1.5 6.75 1.5H11.25C11.6642 1.5 12 1.83579 12 2.25C12 2.66421 11.6642 3 11.25 3H6.75C6.33579 3 6 2.66421 6 2.25Z" fill="#14131D"/>
<path fill-rule="evenodd" clip-rule="evenodd" d="M1.5 4.5C1.5 4.08579 1.83579 3.75 2.25 3.75H15.75C16.1642 3.75 16.5 4.08579 16.5 4.5C16.5 4.91421 16.1642 5.25 15.75 5.25H14.9517L14.4704 12.4691C14.4327 13.0357 14.4014 13.5046 14.3454 13.8862C14.287 14.2835 14.1945 14.6466 14.0017 14.985C13.7016 15.5118 13.2489 15.9353 12.7034 16.1997C12.3529 16.3696 11.9844 16.4377 11.5841 16.4695C11.1996 16.5 10.7297 16.5 10.1618 16.5H7.83823C7.27039 16.5 6.80048 16.5 6.41597 16.4695C6.01562 16.4377 5.64717 16.3696 5.29669 16.1997C4.75111 15.9353 4.29845 15.5118 3.99834 14.985C3.80556 14.6466 3.71302 14.2835 3.65468 13.8862C3.59864 13.5045 3.56739 13.0357 3.52963 12.4691L3.04836 5.25H2.25C1.83579 5.25 1.5 4.91421 1.5 4.5ZM7.5 7.125C7.91421 7.125 8.25 7.46079 8.25 7.875V11.625C8.25 12.0392 7.91421 12.375 7.5 12.375C7.08579 12.375 6.75 12.0392 6.75 11.625V7.875C6.75 7.46079 7.08579 7.125 7.5 7.125ZM11.25 7.875C11.25 7.46079 10.9142 7.125 10.5 7.125C10.0858 7.125 9.75 7.46079 9.75 7.875V11.625C9.75 12.0392 10.0858 12.375 10.5 12.375C10.9142 12.375 11.25 12.0392 11.25 11.625V7.875Z" fill="#14131D"/>
</g>
</svg>
