<svg width="192" height="192" viewBox="0 0 192 192" fill="none" xmlns="http://www.w3.org/2000/svg">
<path opacity="0.08" d="M104 92.8V64C104 61.7333 103.233 59.8333 101.7 58.3C100.167 56.7667 98.2667 56 96 56C93.7333 56 91.8333 56.7667 90.3 58.3C88.7667 59.8333 88 61.7333 88 64V95.8C88 96.8667 88.2 97.9 88.6 98.9C89 99.9 89.6 100.8 90.4 101.6L116.8 128C118.267 129.467 120.133 130.2 122.4 130.2C124.667 130.2 126.533 129.467 128 128C129.467 126.533 130.2 124.667 130.2 122.4C130.2 120.133 129.467 118.267 128 116.8L104 92.8ZM96 176C84.9333 176 74.5333 173.9 64.8 169.7C55.0667 165.5 46.6 159.8 39.4 152.6C32.2 145.4 26.5 136.933 22.3 127.2C18.1 117.467 16 107.067 16 96C16 84.9333 18.1 74.5333 22.3 64.8C26.5 55.0667 32.2 46.6 39.4 39.4C46.6 32.2 55.0667 26.5 64.8 22.3C74.5333 18.1 84.9333 16 96 16C107.067 16 117.467 18.1 127.2 22.3C136.933 26.5 145.4 32.2 152.6 39.4C159.8 46.6 165.5 55.0667 169.7 64.8C173.9 74.5333 176 84.9333 176 96C176 107.067 173.9 117.467 169.7 127.2C165.5 136.933 159.8 145.4 152.6 152.6C145.4 159.8 136.933 165.5 127.2 169.7C117.467 173.9 107.067 176 96 176Z" fill="url(#paint0_linear_13303_11051)"/>
<defs>
<linearGradient id="paint0_linear_13303_11051" x1="212.5" y1="96" x2="-21.5" y2="96" gradientUnits="userSpaceOnUse">
<stop stop-color="#141414"/>
<stop offset="1" stop-color="white"/>
</linearGradient>
</defs>
</svg>
