<svg width="156" height="32" viewBox="0 0 156 32" fill="none" xmlns="http://www.w3.org/2000/svg">
<rect width="156" height="32" fill="white"/>
<path fill-rule="evenodd" clip-rule="evenodd" d="M8.24981 15.989H10.1653C10.0928 15.3141 9.91863 14.7309 9.64291 14.2393C9.36719 13.7478 9.01529 13.3407 8.5872 13.0179C8.15911 12.6951 7.66572 12.4567 7.10702 12.3026C6.54833 12.1486 5.94973 12.0715 5.31122 12.0715C4.42601 12.0715 3.64965 12.2293 2.98212 12.5447C2.31459 12.8602 1.75953 13.293 1.31692 13.8432C0.874318 14.3934 0.544183 15.039 0.326509 15.7799C0.108835 16.5209 0 17.3168 0 18.1678C0 19.0188 0.112463 19.8001 0.337393 20.5117C0.562323 21.2233 0.896085 21.8359 1.33869 22.3494C1.78129 22.8629 2.33273 23.2591 2.993 23.5378C3.65328 23.8166 4.4115 23.956 5.26769 23.956C6.70434 23.956 7.83985 23.5745 8.67427 22.8116C9.50869 22.0486 10.0275 20.9629 10.2306 19.5543H8.33687C8.22078 20.4347 7.90516 21.1169 7.39 21.6011C6.87484 22.0853 6.16015 22.3274 5.24592 22.3274C4.66545 22.3274 4.16481 22.21 3.74398 21.9752C3.32314 21.7405 2.98212 21.4287 2.72091 21.0399C2.4597 20.6511 2.26743 20.2072 2.14408 19.7084C2.02073 19.2095 1.95906 18.696 1.95906 18.1678C1.95906 17.5956 2.0171 17.0417 2.1332 16.5062C2.24929 15.9707 2.44156 15.4975 2.71003 15.0867C2.97849 14.6758 3.33765 14.3457 3.78751 14.0963C4.23737 13.8469 4.79606 13.7221 5.46359 13.7221C6.24722 13.7221 6.87121 13.9202 7.33558 14.3164C7.79995 14.7125 8.10469 15.2701 8.24981 15.989ZM13.308 18.0358C13.308 17.3462 13.3987 16.7336 13.5801 16.1981C13.7615 15.6625 14.0118 15.2114 14.331 14.8446C14.6503 14.4778 15.024 14.199 15.4521 14.0083C15.8802 13.8175 16.3336 13.7221 16.8125 13.7221C17.2914 13.7221 17.7449 13.8175 18.173 14.0083C18.6011 14.199 18.9747 14.4778 19.294 14.8446C19.6132 15.2114 19.8636 15.6625 20.045 16.1981C20.2264 16.7336 20.3171 17.3462 20.3171 18.0358C20.3171 18.7254 20.2264 19.3379 20.045 19.8735C19.8636 20.409 19.6132 20.8565 19.294 21.216C18.9747 21.5754 18.6011 21.8505 18.173 22.0413C17.7449 22.232 17.2914 22.3274 16.8125 22.3274C16.3336 22.3274 15.8802 22.232 15.4521 22.0413C15.024 21.8505 14.6503 21.5754 14.331 21.216C14.0118 20.8565 13.7615 20.409 13.5801 19.8735C13.3987 19.3379 13.308 18.7254 13.308 18.0358ZM11.3489 18.0358C11.3489 18.8721 11.465 19.6497 11.6972 20.3686C11.9294 21.0876 12.2777 21.7148 12.742 22.2503C13.2064 22.7859 13.7796 23.204 14.4616 23.5048C15.1437 23.8056 15.9273 23.956 16.8125 23.956C17.7122 23.956 18.4995 23.8056 19.1743 23.5048C19.8491 23.204 20.4186 22.7859 20.883 22.2503C21.3474 21.7148 21.6956 21.0876 21.9278 20.3686C22.16 19.6497 22.2761 18.8721 22.2761 18.0358C22.2761 17.1994 22.16 16.4182 21.9278 15.6919C21.6956 14.9656 21.3474 14.3347 20.883 13.7992C20.4186 13.2636 19.8491 12.8418 19.1743 12.5337C18.4995 12.2256 17.7122 12.0715 16.8125 12.0715C15.9273 12.0715 15.1437 12.2256 14.4616 12.5337C13.7796 12.8418 13.2064 13.2636 12.742 13.7992C12.2777 14.3347 11.9294 14.9656 11.6972 15.6919C11.465 16.4182 11.3489 17.1994 11.3489 18.0358ZM24.1127 12.3356V23.7139H25.9629V16.6272C25.9629 16.4072 26.0174 16.1321 26.1262 15.8019C26.235 15.4718 26.4092 15.1527 26.6486 14.8446C26.8881 14.5364 27.2001 14.2724 27.5846 14.0523C27.9692 13.8322 28.4299 13.7221 28.9668 13.7221C29.3877 13.7221 29.7323 13.7845 30.0008 13.9092C30.2692 14.0339 30.4833 14.21 30.6429 14.4374C30.8025 14.6648 30.915 14.9326 30.9803 15.2407C31.0456 15.5488 31.0783 15.8863 31.0783 16.2531V23.7139H32.9285V16.6272C32.9285 15.7469 33.1897 15.0426 33.7121 14.5144C34.2345 13.9862 34.9528 13.7221 35.8671 13.7221C36.3169 13.7221 36.6833 13.7882 36.9663 13.9202C37.2493 14.0523 37.4706 14.232 37.6302 14.4594C37.7898 14.6868 37.8987 14.9546 37.9567 15.2627C38.0148 15.5708 38.0438 15.901 38.0438 16.2531V23.7139H39.894V15.3728C39.894 14.7859 39.8033 14.2834 39.6219 13.8652C39.4405 13.447 39.1866 13.1059 38.8601 12.8418C38.5336 12.5777 38.1418 12.3833 37.6846 12.2586C37.2275 12.1339 36.716 12.0715 36.15 12.0715C35.4099 12.0715 34.7315 12.2403 34.1148 12.5777C33.4981 12.9152 33.001 13.392 32.6237 14.0083C32.3916 13.304 31.9925 12.8051 31.4265 12.5117C30.8606 12.2182 30.2293 12.0715 29.5328 12.0715C27.951 12.0715 26.7393 12.7171 25.8976 14.0083H25.8541V12.3356H24.1127ZM50.1546 16.9354H43.6897C43.7187 16.4952 43.813 16.0807 43.9727 15.6919C44.1323 15.3031 44.35 14.9619 44.6257 14.6685C44.9014 14.3751 45.2315 14.144 45.6161 13.9752C46.0006 13.8065 46.4324 13.7221 46.9112 13.7221C47.3756 13.7221 47.8001 13.8065 48.1846 13.9752C48.5692 14.144 48.903 14.3714 49.1859 14.6575C49.4689 14.9436 49.6938 15.2847 49.8607 15.6809C50.0276 16.077 50.1256 16.4952 50.1546 16.9354ZM51.9395 20.1045H50.111C49.9514 20.8528 49.6213 21.4104 49.1206 21.7772C48.62 22.144 47.9778 22.3274 47.1942 22.3274C46.5847 22.3274 46.0551 22.2247 45.6052 22.0193C45.1553 21.8138 44.7853 21.5387 44.4951 21.1939C44.2048 20.8491 43.9944 20.453 43.8638 20.0055C43.7332 19.558 43.6752 19.0848 43.6897 18.586H52.1136C52.1427 17.8964 52.081 17.1701 51.9286 16.4072C51.7762 15.6442 51.5005 14.9399 51.1015 14.2944C50.7024 13.6488 50.1727 13.1169 49.5124 12.6988C48.8522 12.2806 48.0214 12.0715 47.0201 12.0715C46.251 12.0715 45.5435 12.2182 44.8978 12.5117C44.252 12.8051 43.6933 13.216 43.2217 13.7442C42.7501 14.2724 42.3836 14.8959 42.1224 15.6149C41.8612 16.3338 41.7306 17.1261 41.7306 17.9917C41.7597 18.8574 41.8866 19.657 42.1116 20.3906C42.3365 21.1243 42.6739 21.7552 43.1237 22.2834C43.5736 22.8116 44.1287 23.2224 44.7889 23.5158C45.4492 23.8093 46.2292 23.956 47.1289 23.956C48.4059 23.956 49.4653 23.6332 50.3069 22.9876C51.1486 22.342 51.6928 21.381 51.9395 20.1045ZM56.2576 12.3356V8.92435H54.4074V12.3356H52.4918V13.9862H54.4074V21.227C54.4074 21.7552 54.4582 22.1806 54.5597 22.5034C54.6613 22.8262 54.8173 23.0757 55.0277 23.2517C55.2381 23.4278 55.5139 23.5488 55.8549 23.6149C56.1959 23.6809 56.6059 23.7139 57.0847 23.7139H58.4996V22.0633H57.6507C57.3605 22.0633 57.1246 22.0523 56.9432 22.0303C56.7619 22.0083 56.6204 21.9606 56.5188 21.8872C56.4172 21.8138 56.3483 21.7111 56.312 21.5791C56.2757 21.447 56.2576 21.271 56.2576 21.0509V13.9862H58.4996V12.3356H56.2576ZM67.65 16.3411H70.6757C70.6322 15.6075 70.458 14.973 70.1533 14.4374C69.8485 13.9019 69.4531 13.4544 68.967 13.0949C68.4808 12.7354 67.9294 12.4677 67.3126 12.2916C66.6959 12.1155 66.0538 12.0275 65.3862 12.0275C64.472 12.0275 63.6594 12.1816 62.9483 12.4897C62.2372 12.7978 61.635 13.227 61.1416 13.7772C60.6482 14.3274 60.2746 14.9803 60.0206 15.7359C59.7667 16.4915 59.6397 17.3095 59.6397 18.1898C59.6397 19.0408 59.7775 19.8221 60.0533 20.5337C60.329 21.2453 60.7135 21.8579 61.2069 22.3714C61.7003 22.8849 62.2989 23.2847 63.0027 23.5708C63.7065 23.8569 64.4793 24 65.3209 24C66.8156 24 68.0418 23.6039 68.9996 22.8116C69.9574 22.0193 70.5378 20.8675 70.741 19.3563H67.7589C67.6573 20.0605 67.407 20.6217 67.0079 21.0399C66.6088 21.458 66.0393 21.6671 65.2992 21.6671C64.8203 21.6671 64.414 21.5571 64.0802 21.337C63.7464 21.1169 63.4816 20.8345 63.2857 20.4897C63.0898 20.1449 62.9483 19.7597 62.8612 19.3343C62.7742 18.9088 62.7306 18.4906 62.7306 18.0798C62.7306 17.6543 62.7742 17.2251 62.8612 16.7923C62.9483 16.3595 63.097 15.9633 63.3075 15.6039C63.5179 15.2444 63.79 14.9509 64.1237 14.7235C64.4575 14.4961 64.8711 14.3824 65.3645 14.3824C66.685 14.3824 67.4469 15.0353 67.65 16.3411ZM72.1423 8V23.7139H75.2332V17.7497C75.2332 16.5905 75.4219 15.7579 75.7992 15.2517C76.1765 14.7455 76.7859 14.4924 77.6276 14.4924C78.3677 14.4924 78.8829 14.7235 79.1731 15.1857C79.4633 15.6479 79.6085 16.3485 79.6085 17.2875V23.7139H82.6994V16.7153C82.6994 16.011 82.6377 15.3691 82.5144 14.7895C82.391 14.21 82.177 13.7185 81.8723 13.315C81.5675 12.9115 81.1503 12.5961 80.6206 12.3686C80.091 12.1412 79.4126 12.0275 78.5854 12.0275C78.0049 12.0275 77.41 12.1779 76.8005 12.4787C76.191 12.7795 75.6903 13.26 75.2985 13.9202H75.2332V8H72.1423ZM84.5796 15.8349C84.6231 15.1013 84.8045 14.4924 85.1237 14.0083C85.443 13.5241 85.8493 13.1353 86.3427 12.8418C86.8361 12.5484 87.3912 12.3393 88.0079 12.2146C88.6247 12.0899 89.245 12.0275 89.869 12.0275C90.435 12.0275 91.0082 12.0679 91.5886 12.1486C92.1691 12.2293 92.6988 12.387 93.1776 12.6217C93.6565 12.8565 94.0483 13.1829 94.3531 13.6011C94.6578 14.0193 94.8102 14.5731 94.8102 15.2627V21.1829C94.8102 21.6965 94.8392 22.188 94.8973 22.6575C94.9553 23.127 95.0569 23.4791 95.202 23.7139H92.0675C92.0095 23.5378 91.9623 23.3581 91.926 23.1747C91.8897 22.9913 91.8643 22.8042 91.8498 22.6135C91.3564 23.127 90.776 23.4865 90.1085 23.6919C89.4409 23.8973 88.7589 24 88.0623 24C87.5254 24 87.0247 23.934 86.5604 23.8019C86.096 23.6699 85.6897 23.4645 85.3414 23.1857C84.9931 22.9069 84.721 22.5548 84.5251 22.1293C84.3292 21.7038 84.2313 21.1976 84.2313 20.6107C84.2313 19.9652 84.3437 19.4333 84.5687 19.0151C84.7936 18.597 85.0838 18.2632 85.4394 18.0138C85.7949 17.7643 86.2012 17.5773 86.6583 17.4525C87.1154 17.3278 87.5762 17.2288 88.0406 17.1554C88.5049 17.0821 88.962 17.0234 89.4119 16.9794C89.8618 16.9354 90.2608 16.8693 90.6091 16.7813C90.9574 16.6933 91.2331 16.5649 91.4363 16.3961C91.6394 16.2274 91.7337 15.9817 91.7192 15.6589C91.7192 15.3214 91.6648 15.0536 91.556 14.8556C91.4471 14.6575 91.302 14.5034 91.1206 14.3934C90.9392 14.2834 90.7288 14.21 90.4894 14.1733C90.2499 14.1366 89.9924 14.1183 89.7166 14.1183C89.1071 14.1183 88.6283 14.2503 88.28 14.5144C87.9317 14.7785 87.7286 15.2187 87.6705 15.8349H84.5796ZM91.7192 18.1458C91.5886 18.2632 91.4254 18.3549 91.2295 18.4209C91.0336 18.4869 90.8231 18.542 90.5982 18.586C90.3733 18.63 90.1375 18.6667 89.8908 18.696C89.6441 18.7254 89.3974 18.762 89.1507 18.8061C88.9185 18.8501 88.6899 18.9088 88.465 18.9821C88.2401 19.0555 88.0442 19.1545 87.8773 19.2792C87.7104 19.4039 87.5762 19.5617 87.4746 19.7524C87.373 19.9431 87.3222 20.1852 87.3222 20.4787C87.3222 20.7575 87.373 20.9922 87.4746 21.1829C87.5762 21.3737 87.714 21.5241 87.8882 21.6341C88.0623 21.7442 88.2655 21.8212 88.4977 21.8652C88.7299 21.9092 88.9693 21.9312 89.216 21.9312C89.8255 21.9312 90.2971 21.8285 90.6309 21.6231C90.9646 21.4177 91.2113 21.1719 91.3709 20.8858C91.5306 20.5997 91.6285 20.31 91.6648 20.0165C91.7011 19.7231 91.7192 19.4883 91.7192 19.3122V18.1458ZM100.783 12.3356V8.92435H97.6916V12.3356H95.8196V14.4264H97.6916V21.1389C97.6916 21.7111 97.786 22.1733 97.9746 22.5254C98.1633 22.8776 98.4208 23.149 98.7473 23.3398C99.0739 23.5305 99.4512 23.6589 99.8792 23.7249C100.307 23.7909 100.761 23.8239 101.24 23.8239C101.544 23.8239 101.856 23.8166 102.176 23.8019C102.495 23.7873 102.785 23.7579 103.046 23.7139V21.293C102.901 21.3223 102.749 21.3443 102.589 21.359C102.43 21.3737 102.263 21.381 102.089 21.381C101.566 21.381 101.218 21.293 101.044 21.1169C100.87 20.9409 100.783 20.5887 100.783 20.0605V14.4264H103.046V12.3356H100.783Z" fill="#141414"/>
<path d="M117.734 23.2496C116.826 23.2496 116.038 23.0384 115.373 22.616C114.72 22.1936 114.208 21.6176 113.837 20.888C113.478 20.1456 113.299 19.288 113.299 18.3152C113.299 17.3296 113.478 16.4592 113.837 15.704C114.208 14.9488 114.733 14.3536 115.411 13.9184C116.102 13.4832 116.922 13.2656 117.869 13.2656C118.547 13.2656 119.162 13.4064 119.712 13.688C120.275 13.9568 120.704 14.3408 120.998 14.84V8.7536H123.168V23H121.171L121.037 21.4448C120.742 22.0208 120.301 22.4688 119.712 22.7888C119.123 23.096 118.464 23.2496 117.734 23.2496ZM118.214 21.2528C118.79 21.2528 119.283 21.1248 119.693 20.8688C120.102 20.6128 120.416 20.2608 120.634 19.8128C120.864 19.352 120.979 18.8272 120.979 18.2384C120.979 17.6368 120.864 17.112 120.634 16.664C120.416 16.216 120.102 15.864 119.693 15.608C119.283 15.352 118.79 15.224 118.214 15.224C117.651 15.224 117.165 15.352 116.755 15.608C116.346 15.864 116.032 16.2224 115.814 16.6832C115.61 17.1312 115.507 17.6496 115.507 18.2384C115.507 18.8272 115.61 19.352 115.814 19.8128C116.032 20.2608 116.346 20.6128 116.755 20.8688C117.165 21.1248 117.651 21.2528 118.214 21.2528ZM125.074 18.2576C125.074 17.272 125.292 16.408 125.727 15.6656C126.162 14.9232 126.757 14.3408 127.513 13.9184C128.281 13.496 129.145 13.2848 130.105 13.2848C131.077 13.2848 131.935 13.496 132.677 13.9184C133.433 14.3408 134.028 14.9232 134.463 15.6656C134.898 16.408 135.116 17.272 135.116 18.2576C135.116 19.2432 134.898 20.1072 134.463 20.8496C134.028 21.592 133.433 22.1744 132.677 22.5968C131.935 23.0192 131.077 23.2304 130.105 23.2304C129.145 23.2304 128.281 23.0192 127.513 22.5968C126.757 22.1744 126.162 21.592 125.727 20.8496C125.292 20.1072 125.074 19.2432 125.074 18.2576ZM127.282 18.2576C127.282 18.8464 127.397 19.3712 127.628 19.832C127.871 20.2928 128.204 20.6512 128.626 20.9072C129.049 21.1504 129.541 21.272 130.105 21.272C130.668 21.272 131.161 21.1504 131.583 20.9072C132.005 20.6512 132.332 20.2928 132.562 19.832C132.805 19.3712 132.927 18.8464 132.927 18.2576C132.927 17.6432 132.805 17.112 132.562 16.664C132.332 16.216 132.005 15.864 131.583 15.608C131.161 15.352 130.668 15.224 130.105 15.224C129.541 15.224 129.049 15.352 128.626 15.608C128.204 15.864 127.871 16.216 127.628 16.664C127.397 17.112 127.282 17.6432 127.282 18.2576ZM136.418 18.2576C136.418 17.2848 136.616 16.4272 137.013 15.6848C137.423 14.9296 137.98 14.3408 138.684 13.9184C139.388 13.4832 140.207 13.2656 141.141 13.2656C142.396 13.2656 143.426 13.5984 144.232 14.264C145.052 14.9168 145.525 15.7936 145.653 16.8944H143.464C143.336 16.344 143.068 15.928 142.658 15.6464C142.261 15.352 141.781 15.2048 141.218 15.2048C140.706 15.2048 140.252 15.3328 139.855 15.5888C139.458 15.832 139.151 16.184 138.933 16.6448C138.716 17.0928 138.607 17.6304 138.607 18.2576C138.607 18.872 138.709 19.4096 138.914 19.8704C139.119 20.3184 139.407 20.6704 139.778 20.9264C140.162 21.1696 140.616 21.2912 141.141 21.2912C141.743 21.2912 142.248 21.144 142.658 20.8496C143.08 20.5552 143.356 20.1456 143.484 19.6208H145.672C145.57 20.3376 145.314 20.9712 144.904 21.5216C144.495 22.0592 143.964 22.4816 143.311 22.7888C142.671 23.096 141.948 23.2496 141.141 23.2496C140.194 23.2496 139.362 23.0448 138.645 22.6352C137.941 22.2128 137.391 21.6304 136.994 20.888C136.61 20.1328 136.418 19.256 136.418 18.2576ZM146.746 20.1776H148.819C148.832 20.6 148.992 20.9392 149.299 21.1952C149.606 21.4384 150.035 21.56 150.586 21.56C151.162 21.56 151.603 21.4512 151.91 21.2336C152.218 21.016 152.371 20.728 152.371 20.3696C152.371 20.1008 152.288 19.8768 152.122 19.6976C151.968 19.5184 151.667 19.3712 151.219 19.256L149.53 18.872C148.685 18.68 148.051 18.3728 147.629 17.9504C147.219 17.5152 147.014 16.9264 147.014 16.184C147.014 15.5824 147.174 15.064 147.494 14.6288C147.814 14.1936 148.25 13.8608 148.8 13.6304C149.363 13.3872 150.003 13.2656 150.72 13.2656C151.411 13.2656 152.019 13.3936 152.544 13.6496C153.082 13.8928 153.498 14.2448 153.792 14.7056C154.099 15.1536 154.253 15.6848 154.253 16.2992H152.179C152.166 15.864 152.026 15.5248 151.757 15.2816C151.488 15.0384 151.11 14.9168 150.624 14.9168C150.138 14.9168 149.76 15.0256 149.491 15.2432C149.222 15.448 149.088 15.736 149.088 16.1072C149.088 16.6704 149.51 17.048 150.355 17.24L152.045 17.6432C152.838 17.8224 153.434 18.1168 153.83 18.5264C154.24 18.9232 154.445 19.48 154.445 20.1968C154.445 20.8112 154.278 21.3488 153.946 21.8096C153.613 22.2704 153.152 22.6288 152.563 22.8848C151.974 23.128 151.296 23.2496 150.528 23.2496C149.376 23.2496 148.454 22.968 147.763 22.4048C147.085 21.8288 146.746 21.0864 146.746 20.1776Z" fill="#141414"/>
</svg>
