<svg width="14" height="16" viewBox="0 0 14 16" fill="none" xmlns="http://www.w3.org/2000/svg">
<path fill-rule="evenodd" clip-rule="evenodd" d="M8.94073 3.35821C9.16084 3.34022 9.42837 3.33515 9.78071 3.33373C10.0554 4.11023 10.7961 4.6665 11.6667 4.6665C12.7713 4.6665 13.6667 3.77107 13.6667 2.6665C13.6667 1.56193 12.7713 0.666504 11.6667 0.666504C10.7957 0.666504 10.0548 1.22327 9.78034 2.00032C9.41547 2.00174 9.10102 2.00733 8.83216 2.0293C8.45743 2.05992 8.11296 2.12563 7.7894 2.29049C7.28763 2.54615 6.87969 2.9541 6.62402 3.45586C6.45916 3.77942 6.39345 4.12389 6.36284 4.49862C6.33336 4.85941 6.33337 5.3023 6.33337 5.83892V7.33317H4.21957C3.94501 6.55638 3.20419 5.99984 2.33337 5.99984C1.2288 5.99984 0.333374 6.89527 0.333374 7.99984C0.333374 9.10441 1.2288 9.99984 2.33337 9.99984C3.20419 9.99984 3.94501 9.4433 4.21957 8.6665H6.33337V10.1607C6.33337 10.6973 6.33336 11.1403 6.36284 11.5011C6.39345 11.8758 6.45916 12.2203 6.62402 12.5438C6.87969 13.0456 7.28763 13.4535 7.7894 13.7092C8.11296 13.874 8.45743 13.9398 8.83216 13.9704C9.10102 13.9923 9.41548 13.9979 9.78034 13.9994C10.0548 14.7764 10.7957 15.3332 11.6667 15.3332C12.7713 15.3332 13.6667 14.4377 13.6667 13.3332C13.6667 12.2286 12.7713 11.3332 11.6667 11.3332C10.7961 11.3332 10.0554 11.8894 9.78071 12.6659C9.42837 12.6645 9.16084 12.6595 8.94073 12.6415C8.64846 12.6176 8.49899 12.5743 8.39472 12.5212C8.14384 12.3933 7.93986 12.1894 7.81203 11.9385C7.75891 11.8342 7.71562 11.6848 7.69174 11.3925C7.66723 11.0924 7.66671 10.7042 7.66671 10.1332V8.6665H9.78051C10.0551 9.4433 10.7959 9.99984 11.6667 9.99984C12.7713 9.99984 13.6667 9.10441 13.6667 7.99984C13.6667 6.89527 12.7713 5.99984 11.6667 5.99984C10.7959 5.99984 10.0551 6.55638 9.78051 7.33317H7.66671V5.8665C7.66671 5.29545 7.66723 4.90726 7.69174 4.6072C7.71562 4.31492 7.75891 4.16545 7.81203 4.06118C7.93986 3.8103 8.14384 3.60633 8.39472 3.4785C8.49899 3.42537 8.64846 3.38209 8.94073 3.35821Z" fill="#6852D6"/>
</svg>
