<svg width="18" height="18" viewBox="0 0 18 18" fill="none" xmlns="http://www.w3.org/2000/svg">
<g id="fi_10439779">
<path id="Vector" d="M17.7105 9.65534C17.7383 10.3199 17.5013 10.9684 17.0517 11.4584C16.602 11.9485 15.9762 12.2402 15.3118 12.2696C15.2729 12.2714 15.2341 12.2723 15.1954 12.2723C15.0188 12.2721 14.8428 12.253 14.6703 12.2153C14.1586 13.0054 13.4876 13.68 12.7002 14.196C11.9128 14.7119 11.0264 15.0579 10.0977 15.2116C9.98781 15.5344 9.76866 15.8086 9.47809 15.9868C9.18753 16.1651 8.8438 16.2362 8.50634 16.188C8.16888 16.1397 7.85889 15.975 7.62996 15.7225C7.40102 15.4699 7.26753 15.1452 7.25256 14.8047C7.23759 14.4641 7.34207 14.129 7.54796 13.8573C7.75385 13.5856 8.0482 13.3944 8.38012 13.3167C8.71204 13.239 9.06068 13.2797 9.36577 13.4318C9.67086 13.5839 9.91323 13.8378 10.051 14.1496C11.3585 13.9078 12.5397 13.2148 13.3887 12.1915C14.2377 11.1681 14.7008 9.8793 14.697 8.54961C14.697 5.40822 12.1414 2.85254 8.99997 2.85254C5.85859 2.85254 3.3029 5.40822 3.3029 8.54961C3.30273 9.52098 3.55098 10.4763 4.02406 11.3246C4.0401 11.3526 4.05213 11.3827 4.05982 11.4141C4.10551 11.5411 4.10063 11.6808 4.04617 11.8043C3.99172 11.9278 3.89187 12.0256 3.76728 12.0776C3.46221 12.206 3.13456 12.2721 2.80358 12.272C2.76463 12.272 2.72559 12.2711 2.68647 12.2693C2.02226 12.2396 1.39693 11.9477 0.947591 11.4577C0.498254 10.9676 0.261587 10.3194 0.289485 9.6551C0.3007 9.3902 0.294442 9.15384 0.288325 8.92529C0.282629 8.7101 0.276688 8.48756 0.286461 8.25535C0.31563 7.60674 0.594639 6.99457 1.06505 6.54706C1.53546 6.09955 2.16079 5.85142 2.81005 5.85464C3.85264 3.46922 6.23458 1.79785 8.99997 1.79785C11.7654 1.79785 14.1473 3.46921 15.1899 5.85467C15.8393 5.85097 16.4648 6.09889 16.9353 6.5464C17.4058 6.99392 17.6847 7.60627 17.7134 8.25496C17.7233 8.48752 17.7174 8.71003 17.7116 8.92522C17.7055 9.1538 17.6992 9.39027 17.7105 9.65534ZM13.4228 8.54961C13.4225 9.22719 13.2667 9.89566 12.9672 10.5035C12.6677 11.1113 12.2326 11.6422 11.6955 12.0553C11.1584 12.4683 10.5336 12.7525 9.86928 12.8859C9.20496 13.0193 8.51887 12.9983 7.86393 12.8246L6.07374 13.8584C5.98342 13.9106 5.87965 13.9348 5.77556 13.928C5.67148 13.9212 5.57175 13.8837 5.489 13.8202C5.40625 13.7567 5.34418 13.6701 5.31066 13.5713C5.27713 13.4725 5.27365 13.366 5.30066 13.2653L5.75818 11.5585C5.0005 10.7395 4.57891 9.66531 4.57732 8.54961C4.57732 6.11019 6.56122 4.12576 8.99997 4.12576C11.4387 4.12576 13.4228 6.11019 13.4228 8.54961ZM7.77038 8.54961C7.77038 8.40975 7.71482 8.27562 7.61593 8.17672C7.51703 8.07783 7.3829 8.02227 7.24304 8.02227H7.24216C7.1379 8.02246 7.03604 8.05355 6.94945 8.11162C6.86286 8.16968 6.79542 8.25211 6.75566 8.34848C6.7159 8.44486 6.7056 8.55086 6.72605 8.65309C6.74651 8.75532 6.79681 8.84919 6.8706 8.92284C6.94439 8.9965 7.03836 9.04662 7.14063 9.06689C7.24289 9.08716 7.34888 9.07666 7.44518 9.03672C7.54148 8.99677 7.62378 8.92918 7.68168 8.84248C7.73958 8.75578 7.77049 8.65387 7.77049 8.54961H7.77038ZM9.52742 8.54961C9.52738 8.53235 9.52644 8.5151 9.52461 8.49793C9.52295 8.4807 9.52038 8.46356 9.51691 8.4466C9.51376 8.42971 9.50952 8.41303 9.50422 8.39668C9.49933 8.38016 9.49336 8.36398 9.48703 8.34781C9.4807 8.33164 9.47297 8.31652 9.46488 8.30141C9.45685 8.2862 9.44805 8.27142 9.43851 8.25711C9.4289 8.24265 9.41856 8.22869 9.40754 8.21527C9.3967 8.20183 9.3851 8.18904 9.37277 8.17695C9.36082 8.16465 9.34781 8.15305 9.33445 8.1418C9.32106 8.13125 9.30699 8.1207 9.29258 8.11121C9.27828 8.10168 9.26351 8.09288 9.24832 8.08484C9.23316 8.07676 9.21738 8.06938 9.20152 8.0627C9.18569 8.05607 9.16951 8.05032 9.15304 8.04547C9.12016 8.03491 9.0862 8.02807 9.05179 8.02508C9.00014 8.0201 8.94805 8.02259 8.89711 8.03246C8.88015 8.03592 8.86338 8.04027 8.84687 8.04547C8.83039 8.0503 8.81419 8.05606 8.79835 8.0627C8.78253 8.06938 8.76671 8.07676 8.75159 8.08484C8.73648 8.09293 8.72171 8.10172 8.70726 8.11121C8.69281 8.1207 8.67879 8.13125 8.66581 8.1418C8.6521 8.15305 8.63945 8.16465 8.62714 8.17695C8.6148 8.18905 8.60317 8.20184 8.5923 8.21527C8.58142 8.22869 8.57122 8.24265 8.56175 8.25711C8.55209 8.27141 8.54317 8.28619 8.53503 8.30141C8.52692 8.31647 8.51963 8.33196 8.5132 8.34781C8.50653 8.3638 8.50066 8.38011 8.49562 8.39668C8.49074 8.41285 8.48652 8.42973 8.483 8.4466C8.47953 8.46357 8.47693 8.4807 8.47523 8.49793C8.47351 8.51516 8.47277 8.53238 8.47277 8.54961C8.47277 8.56684 8.47351 8.58441 8.47523 8.60164C8.47696 8.61875 8.47955 8.63577 8.483 8.65262C8.48652 8.66949 8.49074 8.68637 8.49562 8.70289C8.50066 8.71935 8.50653 8.73554 8.5132 8.75141C8.51963 8.76737 8.52692 8.78298 8.53503 8.79816C8.54308 8.81328 8.55226 8.82805 8.56175 8.84246C8.57122 8.8568 8.58142 8.87065 8.5923 8.88395C8.60326 8.89741 8.61489 8.91032 8.62714 8.92262C8.63945 8.93457 8.6521 8.94652 8.66581 8.95742C8.67903 8.9684 8.69287 8.97861 8.70726 8.98801C8.72171 8.9975 8.73644 9.00664 8.75159 9.01473C8.78213 9.03064 8.81401 9.04382 8.84687 9.0541C8.86336 9.05902 8.88023 9.06324 8.89711 9.06676C8.931 9.07369 8.96552 9.07711 9.00011 9.07695C9.13981 9.07658 9.27372 9.02112 9.37277 8.92262C9.39707 8.89795 9.41908 8.87112 9.43851 8.84246C9.448 8.82805 9.45679 8.81328 9.46488 8.79816C9.47297 8.78305 9.48035 8.76723 9.48703 8.75141C9.49371 8.73559 9.49933 8.71906 9.50422 8.70289C9.50948 8.68641 9.51372 8.66962 9.51691 8.65262C9.52035 8.63577 9.52292 8.61875 9.52461 8.60164C9.52641 8.58433 9.52731 8.56694 9.52732 8.54954L9.52742 8.54961ZM11.2852 8.54961C11.2852 8.40975 11.2297 8.27562 11.1308 8.17672C11.0319 8.07783 10.8978 8.02227 10.7579 8.02227H10.7569C10.6526 8.02247 10.5508 8.05357 10.4642 8.11163C10.3776 8.1697 10.3102 8.25213 10.2704 8.34851C10.2306 8.44489 10.2203 8.55089 10.2408 8.65311C10.2613 8.75534 10.3116 8.84921 10.3854 8.92286C10.4592 8.9965 10.5531 9.04663 10.6554 9.06689C10.7577 9.08716 10.8636 9.07666 10.9599 9.03671C11.0562 8.99677 11.1385 8.92918 11.1964 8.84248C11.2543 8.75578 11.2852 8.65386 11.2852 8.54961Z" fill="#FF7129"/>
</g>
</svg>
