<svg xmlns="http://www.w3.org/2000/svg" width="20" height="20" viewBox="0 0 20 20" fill="none">
  <path d="M3.15742 17.0833C2.94409 17.0833 2.7652 17.0111 2.62076 16.8666C2.47645 16.7223 2.4043 16.5434 2.4043 16.33V8.67308C2.4043 8.45614 2.47645 8.27586 2.62076 8.13225C2.7652 7.9885 2.94409 7.91663 3.15742 7.91663H5.67346C5.8868 7.91663 6.06569 7.98885 6.21013 8.13329C6.35444 8.2776 6.42659 8.45649 6.42659 8.66996V16.3268C6.42659 16.5438 6.35444 16.7241 6.21013 16.8677C6.06569 17.0114 5.8868 17.0833 5.67346 17.0833H3.15742ZM8.66471 17.0833C8.44832 17.0833 8.26826 17.0111 8.12451 16.8666C7.98089 16.7223 7.90909 16.5434 7.90909 16.33V3.66996C7.90909 3.45649 7.98124 3.2776 8.12555 3.13329C8.26985 2.98885 8.44874 2.91663 8.66221 2.91663H11.336C11.5524 2.91663 11.7324 2.98885 11.8762 3.13329C12.0198 3.2776 12.0916 3.45649 12.0916 3.66996V16.33C12.0916 16.5434 12.0194 16.7223 11.8751 16.8666C11.7308 17.0111 11.5519 17.0833 11.3385 17.0833H8.66471ZM14.3272 17.0833C14.1139 17.0833 13.935 17.0114 13.7905 16.8677C13.6462 16.7239 13.5741 16.5458 13.5741 16.3333V10.3331C13.5741 10.1206 13.6462 9.94253 13.7905 9.79892C13.935 9.65517 14.1139 9.58329 14.3272 9.58329H16.8433C17.0566 9.58329 17.2355 9.65517 17.3799 9.79892C17.5242 9.94267 17.5964 10.1208 17.5964 10.3333V16.3335C17.5964 16.546 17.5242 16.7241 17.3799 16.8677C17.2355 17.0114 17.0566 17.0833 16.8433 17.0833H14.3272Z" fill="#6852D6"/>
</svg>