<svg width="18" height="18" viewBox="0 0 18 18" fill="none" xmlns="http://www.w3.org/2000/svg">
<g id="lightning-02">
<path id="Solid" d="M6.37092 0.750088L6.34468 0.749903C6.24954 0.748964 6.0522 0.747015 5.86503 0.811575C5.70739 0.865948 5.56381 0.954686 5.44468 1.07137C5.30323 1.20991 5.21672 1.38728 5.17501 1.4728L5.16344 1.49635L2.00283 7.81756C1.94034 7.94246 1.87267 8.07771 1.82609 8.19695C1.77726 8.32198 1.70645 8.53578 1.74394 8.78952C1.78917 9.09564 1.9585 9.36962 2.21208 9.54698C2.42226 9.69398 2.64516 9.72627 2.77882 9.7385C2.90631 9.75017 3.05754 9.75013 3.1972 9.75009L6.86708 9.75009L4.90673 16.2846C4.80727 16.6161 4.94761 16.9727 5.24638 17.1474C5.54514 17.3222 5.92472 17.2699 6.16498 17.0207L15.329 7.51723C15.4665 7.37472 15.6025 7.23377 15.7021 7.11016C15.7921 6.99846 15.9692 6.76662 15.9901 6.44908C16.0136 6.09261 15.8664 5.74618 15.5935 5.51566C15.3504 5.31031 15.0606 5.27684 14.9177 5.26411C14.7596 5.25002 14.5637 5.25005 14.3657 5.25008L10.0823 5.25009L11.3898 1.76343C11.4762 1.53311 11.4442 1.27507 11.304 1.07289C11.1639 0.870711 10.9336 0.750088 10.6876 0.750088H6.37092Z" fill="#FF7129"/>
</g>
</svg>
