<svg width="16" height="16" viewBox="0 0 16 16" fill="none" xmlns="http://www.w3.org/2000/svg">
<path fill-rule="evenodd" clip-rule="evenodd" d="M0.842074 10.9998C0.842074 8.62191 2.72777 6.6665 5.08769 6.6665C7.4476 6.6665 9.3333 8.62191 9.3333 10.9998C9.3333 13.3778 7.4476 15.3332 5.08769 15.3332C4.60259 15.3332 4.13528 15.2499 3.69961 15.0961C3.6276 15.0707 3.58293 15.055 3.55018 15.0441C3.54423 15.0421 3.53937 15.0406 3.53547 15.0393L3.53185 15.0397C3.50898 15.0423 3.47782 15.0465 3.42005 15.0544L1.42351 15.327C1.20748 15.3565 0.990664 15.2785 0.842944 15.1182C0.695224 14.9578 0.635267 14.7353 0.682393 14.5224L1.08996 12.6813C1.10412 12.6173 1.1117 12.5828 1.11656 12.5574C1.11684 12.556 1.11732 12.5534 1.11732 12.5534C1.11611 12.5492 1.11458 12.5439 1.11266 12.5376C1.10168 12.5012 1.08554 12.4517 1.05929 12.3713C0.918168 11.9393 0.842074 11.4779 0.842074 10.9998Z" fill="#6852D6"/>
<path d="M3.43165 5.58157C3.95004 5.42031 4.50259 5.33317 5.07855 5.33317C8.22083 5.33317 10.6667 7.92695 10.6667 10.9998C10.6667 11.5423 10.5905 12.0698 10.4477 12.5707C10.809 12.5058 11.1595 12.4089 11.4958 12.2829C11.5433 12.2651 11.5906 12.247 11.6385 12.2306C11.6772 12.2351 11.7157 12.2411 11.7543 12.2467L13.8962 12.5607C13.9973 12.5756 14.1121 12.5924 14.2121 12.5981C14.3229 12.6044 14.495 12.6037 14.6774 12.5253C14.9052 12.4273 15.0885 12.2482 15.1917 12.0227C15.2743 11.8422 15.279 11.6701 15.2752 11.5592C15.2718 11.4591 15.2576 11.344 15.2451 11.2425L14.9744 9.04393C14.9674 8.98677 14.9638 8.95675 14.9617 8.93474C14.9733 8.88657 14.9954 8.83997 15.013 8.79379C15.2655 8.13178 15.4035 7.41441 15.4035 6.6665C15.4035 3.34868 12.6973 0.666504 9.36839 0.666504C6.4112 0.666504 3.94549 2.78306 3.43165 5.58157Z" fill="#6852D6"/>
</svg>
