<svg width="18" height="18" viewBox="0 0 18 18" fill="none" xmlns="http://www.w3.org/2000/svg">
<g id="vuesax/bold/convertshape">
<g id="convertshape">
<path id="Vector" d="M16.5 3.8625V6.6375C16.5 8.325 15.825 9 14.1375 9H12.1125C10.425 9 9.75 8.325 9.75 6.6375V3.8625C9.75 2.175 10.425 1.5 12.1125 1.5H14.1375C15.825 1.5 16.5 2.175 16.5 3.8625Z" fill="#FF7129"/>
<path id="Vector_2" d="M8.25 11.3625V14.1375C8.25 15.825 7.575 16.5 5.8875 16.5H3.8625C2.175 16.5 1.5 15.825 1.5 14.1375V11.3625C1.5 9.675 2.175 9 3.8625 9H5.8875C7.575 9 8.25 9.675 8.25 11.3625Z" fill="#FF7129"/>
<path id="Vector_3" d="M11.0851 16.5C10.8826 16.5 10.6951 16.3875 10.5976 16.215C10.5001 16.035 10.5001 15.825 10.6051 15.645L11.3326 14.43C11.4901 14.16 11.8351 14.0775 12.1051 14.235C12.3751 14.3925 12.4576 14.7375 12.3001 15.0075L12.1651 15.2325C14.0176 14.7525 15.3826 13.0725 15.3826 11.0775C15.3826 10.77 15.6376 10.515 15.9451 10.515C16.2526 10.515 16.5001 10.77 16.5001 11.085C16.5001 14.07 14.0701 16.5 11.0851 16.5Z" fill="#FF7129"/>
<path id="Vector_4" d="M2.0625 7.4775C1.755 7.4775 1.5 7.23 1.5 6.915C1.5 3.93 3.93 1.5 6.915 1.5C7.125 1.5 7.305 1.6125 7.41 1.785C7.5075 1.965 7.5075 2.175 7.4025 2.355L6.675 3.5625C6.51 3.8325 6.165 3.9225 5.9025 3.7575C5.6325 3.6 5.55 3.255 5.7075 2.985L5.8425 2.76C3.9975 3.24 2.625 4.92 2.625 6.915C2.625 7.23 2.37 7.4775 2.0625 7.4775Z" fill="#FF7129"/>
</g>
</g>
</svg>
