<svg width="18" height="18" viewBox="0 0 18 18" fill="none" xmlns="http://www.w3.org/2000/svg">
<g id="status-active-major 1" clip-path="url(#clip0_701_12392)">
<g id="Group">
<path id="Vector" d="M6.76718 2.15558C8.26692 1.66623 9.88588 1.68299 11.3752 2.20328C11.6005 2.28205 11.8479 2.26808 12.0629 2.16445C12.278 2.06081 12.443 1.87601 12.5218 1.65068C12.6005 1.42535 12.5866 1.17796 12.4829 0.962931C12.3793 0.747902 12.1945 0.582847 11.9692 0.504078C10.1075 -0.146396 8.08379 -0.167428 6.20903 0.444213C4.33428 1.05585 2.7123 2.26631 1.59245 3.8895C0.472602 5.51269 -0.0831326 7.45876 0.0106832 9.42853C0.104499 11.3983 0.842671 13.2827 2.11172 14.7922C3.38077 16.3016 5.11045 17.3524 7.03484 17.7831C8.95924 18.2138 10.9718 18.0005 12.7632 17.1761C14.5546 16.3516 16.0256 14.9616 16.9501 13.2197C17.8747 11.4779 18.2015 9.48057 17.8804 7.53488C17.8611 7.41822 17.8191 7.30651 17.7566 7.20611C17.6942 7.10571 17.6126 7.01859 17.5165 6.94972C17.4204 6.88086 17.3116 6.8316 17.1965 6.80476C17.0813 6.77791 16.962 6.77401 16.8454 6.79328C16.7287 6.81254 16.617 6.8546 16.5166 6.91704C16.4162 6.97948 16.3291 7.06108 16.2602 7.15719C16.1914 7.2533 16.1421 7.36203 16.1153 7.47717C16.0884 7.59232 16.0845 7.71162 16.1038 7.82828C16.3281 9.18747 16.1579 10.5825 15.6132 11.8478C15.0685 13.1131 14.1722 14.1956 13.0307 14.9669C11.8893 15.7381 10.5505 16.1657 9.17333 16.1988C7.79614 16.232 6.43834 15.8694 5.26106 15.1541C4.08377 14.4387 3.13642 13.4006 2.53142 12.163C1.92642 10.9254 1.68917 9.54015 1.84782 8.17173C2.00647 6.80332 2.55437 5.50913 3.42649 4.44276C4.29861 3.37639 5.45745 2.5826 6.76718 2.15558Z" fill="#FF7129"/>
<path id="Vector_2" d="M16.0624 4.26605C16.2321 4.06295 16.3156 3.80147 16.2948 3.53762C16.2741 3.27377 16.1509 3.02852 15.9516 2.85439C15.7523 2.68025 15.4927 2.59109 15.2285 2.60598C14.9642 2.62086 14.7163 2.73863 14.5378 2.93405L8.95064 9.31865L7.01564 7.38365C6.8242 7.2016 6.56919 7.10158 6.30503 7.10495C6.04088 7.10831 5.78849 7.21478 5.60175 7.40164C5.41501 7.58851 5.30869 7.84096 5.30549 8.10512C5.3023 8.36928 5.40247 8.62422 5.58464 8.81555L8.28464 11.5155C8.38263 11.6136 8.49971 11.6905 8.62862 11.7414C8.75754 11.7924 8.89554 11.8163 9.03409 11.8118C9.17263 11.8072 9.30876 11.7743 9.43405 11.7149C9.55934 11.6556 9.67111 11.5712 9.76244 11.4669L16.0624 4.26695V4.26605Z" fill="#FF7129"/>
</g>
</g>
<defs>
<clipPath id="clip0_701_12392">
<rect width="18" height="18" fill="white"/>
</clipPath>
</defs>
</svg>
