<svg width="20" height="20" viewBox="0 0 20 20" fill="none" xmlns="http://www.w3.org/2000/svg">
<path d="M18.8388 5.40115C19.2288 5.01115 19.2288 4.38115 18.8388 3.99115L16.0088 1.16115C15.6188 0.771152 14.9888 0.771152 14.5988 1.16115L10.1088 5.65115L6.21877 1.76115C5.43878 0.981153 4.16877 0.981153 3.38877 1.76115L1.48877 3.66115C0.708774 4.44115 0.708774 5.71115 1.48877 6.49115L5.37877 10.3812L0.868774 14.8912V19.1312H5.10877L9.62877 14.6112L13.5188 18.5012C14.4688 19.4512 15.7488 19.1012 16.3488 18.5012L18.2488 16.6012C19.0288 15.8212 19.0288 14.5512 18.2488 13.7712L14.3588 9.88115L18.8388 5.40115ZM2.90877 5.07115L4.79877 3.17115L6.06877 4.44115L4.88877 5.63115L6.29877 7.04115L7.48877 5.85115L8.68877 7.05115L6.78877 8.95115L2.90877 5.07115ZM14.1388 12.5112L12.9488 13.7012L14.3588 15.1112L15.5488 13.9212L16.8188 15.1912L14.9188 17.0912L11.0288 13.2012L12.9288 11.3012L14.1388 12.5112ZM4.27877 17.1312H2.86877V15.7212L12.4788 6.11115L13.8888 7.52115L4.27877 17.1312ZM13.8888 4.69115L15.2988 3.28115L16.7088 4.69115L15.2988 6.10115L13.8888 4.69115Z" fill="#A1A1A1"/>
</svg>
